<svg width="17" height="17" viewBox="0 0 17 17" fill="none" xmlns="http://www.w3.org/2000/svg">
<rect width="17" height="17" rx="8.5" fill="black"/>
<path d="M4.9969 12.0031C4.75606 12.0031 4.54996 11.9174 4.3786 11.7461C4.20724 11.5747 4.12142 11.3685 4.12112 11.1273V5.87269C4.12112 5.63185 4.20695 5.42575 4.3786 5.25439C4.55025 5.08304 4.75635 4.99721 4.9969 4.99692H12.0031C12.2439 4.99692 12.4502 5.08274 12.6218 5.25439C12.7935 5.42605 12.8791 5.63214 12.8789 5.87269V11.1273C12.8789 11.3682 12.7932 11.5744 12.6218 11.7461C12.4505 11.9177 12.2442 12.0034 12.0031 12.0031H4.9969ZM8.49999 8.86126C8.53648 8.86126 8.57487 8.85572 8.61515 8.84463C8.65544 8.83353 8.69368 8.81718 8.72988 8.79558L11.8279 6.85793C11.8863 6.82144 11.9301 6.7759 11.9593 6.72131C11.9885 6.66672 12.0031 6.60644 12.0031 6.54047C12.0031 6.39451 11.941 6.28503 11.817 6.21205C11.6929 6.13907 11.5652 6.14272 11.4338 6.223L8.49999 8.06212L5.56615 6.223C5.43478 6.14272 5.30707 6.14097 5.183 6.21775C5.05893 6.29452 4.9969 6.4021 4.9969 6.54047C4.9969 6.61345 5.01149 6.67738 5.04069 6.73226C5.06988 6.78714 5.11367 6.82903 5.17205 6.85793L8.2701 8.79558C8.30659 8.81748 8.34498 8.83397 8.38526 8.84506C8.42555 8.85616 8.46379 8.86156 8.49999 8.86126Z" fill="white"/>
</svg>
