<svg width="17" height="17" viewBox="0 0 17 17" fill="none" xmlns="http://www.w3.org/2000/svg">
<rect width="17" height="17" rx="8.5" fill="black"/>
<path fill-rule="evenodd" clip-rule="evenodd" d="M10.5692 12.8904C9.93583 12.8671 8.14095 12.619 6.26118 10.7397C4.38186 8.85991 4.13424 7.06547 4.11049 6.43169C4.0753 5.46586 4.81507 4.52774 5.66963 4.16137C5.77254 4.11694 5.88523 4.10002 5.99665 4.11228C6.10807 4.12454 6.21438 4.16555 6.30516 4.2313C7.00887 4.74413 7.49442 5.51996 7.91137 6.12998C8.0031 6.26401 8.04233 6.4271 8.02156 6.58818C8.0008 6.74926 7.9215 6.89707 7.79877 7.00345L6.9407 7.64074C6.89924 7.67068 6.87006 7.71465 6.85857 7.76447C6.84709 7.8143 6.85407 7.86661 6.87824 7.91167C7.07264 8.26484 7.41833 8.79086 7.81417 9.18669C8.21 9.58253 8.76109 9.95109 9.13889 10.1675C9.18626 10.1941 9.24201 10.2015 9.2947 10.1883C9.34738 10.175 9.39298 10.1421 9.42213 10.0962L9.98069 9.24607C10.0834 9.10966 10.2349 9.01827 10.4034 8.99106C10.572 8.96384 10.7445 9.00289 10.885 9.10005C11.5038 9.52843 12.2259 10.0056 12.7546 10.6825C12.8257 10.7739 12.8709 10.8828 12.8855 10.9977C12.9002 11.1126 12.8836 11.2293 12.8377 11.3356C12.4696 12.1946 11.5381 12.926 10.5692 12.8904Z" fill="white"/>
</svg>
