<svg width="18" height="18" viewBox="0 0 18 18" fill="none" xmlns="http://www.w3.org/2000/svg">
<circle cx="8.51807" cy="8.51807" r="8.51807" fill="black"/>
<path d="M8.51798 4.328C9.88262 4.328 10.0443 4.33322 10.5832 4.3578C11.0815 4.38053 11.3521 4.46379 11.5322 4.53378C11.7708 4.62649 11.941 4.73724 12.1198 4.91607C12.2987 5.09493 12.4095 5.26518 12.5022 5.50374C12.5722 5.68383 12.6554 5.95445 12.6781 6.45275C12.7027 6.99166 12.7079 7.15331 12.7079 8.51795C12.7079 9.8826 12.7027 10.0443 12.6781 10.5832C12.6554 11.0815 12.5722 11.3521 12.5022 11.5322C12.4095 11.7707 12.2987 11.941 12.1199 12.1198C11.941 12.2987 11.7708 12.4094 11.5322 12.5021C11.3521 12.5721 11.0815 12.6554 10.5832 12.6781C10.0444 12.7027 9.88273 12.7079 8.51798 12.7079C7.15322 12.7079 6.99161 12.7027 6.45276 12.6781C5.95445 12.6554 5.68384 12.5721 5.50375 12.5021C5.26519 12.4094 5.09493 12.2987 4.9161 12.1198C4.73727 11.941 4.6265 11.7707 4.53378 11.5322C4.46379 11.3521 4.38053 11.0815 4.35781 10.5832C4.33322 10.0443 4.32801 9.8826 4.32801 8.51795C4.32801 7.15331 4.33322 6.99166 4.35781 6.45275C4.38053 5.95445 4.46379 5.68383 4.53378 5.50374C4.6265 5.26518 4.73724 5.09493 4.9161 4.91609C5.09493 4.73724 5.26519 4.62649 5.50375 4.53378C5.68384 4.46379 5.95445 4.38053 6.45276 4.3578C6.99167 4.33322 7.15332 4.328 8.51798 4.328ZM8.51798 3.40714C7.12995 3.40714 6.95591 3.41302 6.41078 3.43789C5.86679 3.4627 5.49527 3.54911 5.17018 3.67544C4.8341 3.80605 4.54908 3.9808 4.26493 4.26493C3.9808 4.54907 3.80605 4.83409 3.67546 5.17017C3.54911 5.49526 3.4627 5.86678 3.43789 6.41077C3.41302 6.95589 3.40714 7.12994 3.40714 8.51795C3.40714 9.90597 3.41302 10.08 3.43789 10.6251C3.4627 11.1691 3.54911 11.5407 3.67546 11.8657C3.80605 12.2018 3.9808 12.4868 4.26493 12.771C4.54908 13.0551 4.8341 13.2299 5.17018 13.3605C5.49527 13.4868 5.86679 13.5732 6.41078 13.598C6.95591 13.6229 7.12995 13.6288 8.51798 13.6288C9.90599 13.6288 10.08 13.6229 10.6252 13.598C11.1692 13.5732 11.5407 13.4868 11.8658 13.3605C12.2019 13.2299 12.4869 13.0551 12.771 12.771C13.0551 12.4868 13.2299 12.2018 13.3605 11.8657C13.4868 11.5407 13.5732 11.1691 13.5981 10.6251C13.6229 10.08 13.6288 9.90597 13.6288 8.51795C13.6288 7.12994 13.6229 6.95589 13.5981 6.41077C13.5732 5.86678 13.4868 5.49526 13.3605 5.17017C13.2299 4.83409 13.0551 4.54907 12.771 4.26493C12.4869 3.9808 12.2019 3.80605 11.8658 3.67544C11.5407 3.54911 11.1692 3.4627 10.6252 3.43789C10.08 3.41302 9.90599 3.40714 8.51798 3.40714Z" fill="white"/>
<path d="M8.52037 5.89618C7.07089 5.89618 5.89587 7.07119 5.89587 8.52064C5.89587 9.97012 7.07089 11.1451 8.52037 11.1451C9.96983 11.1451 11.1448 9.97012 11.1448 8.52064C11.1448 7.07119 9.96983 5.89618 8.52037 5.89618ZM8.52037 10.2243C7.57947 10.2243 6.81674 9.46154 6.81674 8.52064C6.81674 7.57977 7.57947 6.81705 8.52037 6.81705C9.46124 6.81705 10.224 7.57977 10.224 8.52064C10.224 9.46154 9.46124 10.2243 8.52037 10.2243Z" fill="white"/>
<path d="M11.8617 5.79071C11.8617 6.12941 11.5871 6.404 11.2484 6.404C10.9097 6.404 10.6351 6.12941 10.6351 5.79071C10.6351 5.45199 10.9097 5.1774 11.2484 5.1774C11.5871 5.1774 11.8617 5.45199 11.8617 5.79071Z" fill="white"/>
</svg>
