<svg width="119" height="56" viewBox="0 0 119 56" fill="none" xmlns="http://www.w3.org/2000/svg">
<g clip-path="url(#clip0_8_6)">
<path d="M18.3763 19.7111C16.9412 19.0844 15.2252 18.5188 13.1973 18.0144C11.3409 17.5406 9.99932 17.082 9.14134 16.654C8.28336 16.2261 7.86217 15.6147 7.86217 14.8198C7.86217 14.1473 8.15856 13.5818 8.76695 13.1232C9.37534 12.6647 10.2333 12.4507 11.3721 12.4507C12.7605 12.4507 13.8056 12.7564 14.5388 13.3678C15.2564 13.9792 15.6152 14.7893 15.6152 15.8134H22.8066C22.8066 12.7258 21.8551 10.326 19.9519 8.59883C18.0487 6.87162 15.3032 6.01566 11.7153 6.01566C9.37534 6.01566 7.36298 6.39778 5.69382 7.16203C4.02465 7.92629 2.74548 8.98096 1.8719 10.326C0.998318 11.6711 0.577126 13.2149 0.577126 14.9268C0.577126 16.8833 1.06072 18.473 2.0279 19.6805C2.99507 20.9033 4.18065 21.8204 5.55342 22.4471C6.94179 23.0738 8.59535 23.624 10.5453 24.0979C12.5109 24.6023 13.9616 25.1067 14.882 25.6111C15.8024 26.1002 16.2704 26.8492 16.2704 27.8427C16.2704 28.6987 15.9272 29.3712 15.2252 29.8756C14.5388 30.38 13.4625 30.6399 12.0117 30.6399C8.86055 30.6399 7.28498 29.3406 7.28498 26.7269H-6.10352e-05C-6.10352e-05 28.7598 0.467929 30.5634 1.40391 32.1378C2.33989 33.7122 3.71266 34.9197 5.52222 35.7909C7.33178 36.6622 9.48453 37.0902 11.9961 37.0902C14.4296 37.0902 16.5044 36.6775 18.2359 35.8521C19.9675 35.0267 21.2779 33.9109 22.1827 32.4741C23.0718 31.0526 23.5242 29.4018 23.5242 27.5217C23.5242 25.4582 23.025 23.7922 22.0111 22.5388C21.0283 21.2854 19.8115 20.3377 18.3763 19.7111Z" fill="#2A3134"/>
<path d="M46.8744 29.4625C45.5172 30.2421 44.0197 30.6242 42.3661 30.6242C40.6969 30.6242 39.1682 30.2421 37.7954 29.4625C36.4226 28.683 35.3462 27.5978 34.5663 26.2068C33.7863 24.8159 33.3963 23.2568 33.3963 21.5296C33.3963 19.8024 33.7863 18.2433 34.5663 16.8524C35.3462 15.4614 36.4226 14.3762 37.7954 13.5966C39.1682 12.8171 40.6969 12.435 42.3661 12.435C44.0197 12.435 45.5172 12.8171 46.8744 13.5966C48.2316 14.3762 49.3079 15.4614 50.0879 16.8524C50.8679 18.2433 51.2579 19.8024 51.2579 21.5296C51.2579 23.2568 50.8679 24.8159 50.0879 26.2068C49.3079 27.5978 48.2316 28.683 46.8744 29.4625ZM56.437 29.4625C57.841 27.0933 58.5429 24.4643 58.5429 21.5449C58.5429 18.6254 57.841 15.9811 56.437 13.6272C55.033 11.258 53.0987 9.40854 50.6495 8.04817C48.2004 6.6878 45.4392 6.01526 42.3661 6.01526C39.2774 6.01526 36.5006 6.6878 34.0203 8.04817C31.5555 9.40854 29.6212 11.2733 28.2172 13.6272C26.8132 15.9964 26.1112 18.6254 26.1112 21.5449C26.1112 24.4643 26.8132 27.0933 28.2172 29.4625C29.6212 31.8317 31.5555 33.6812 34.0203 35.0416C36.485 36.4019 39.2774 37.0745 42.3661 37.0745C45.4236 37.0745 48.1848 36.4019 50.6495 35.0416C53.0987 33.6812 55.033 31.8317 56.437 29.4625Z" fill="#2A3134"/>
<path d="M61.0883 6V37.0898H84.6282V30.6395H68.2017V6H61.0883Z" fill="#2A3134"/>
<path d="M57.0298 41.614C56.4995 41.614 56.0003 41.721 55.5323 41.9503C55.0643 42.1643 54.6899 42.4853 54.3935 42.8827C54.1439 42.47 53.8007 42.1643 53.3795 41.9503C52.9583 41.7363 52.4747 41.6293 51.9132 41.6293C51.4296 41.6293 50.9616 41.721 50.5248 41.9197C50.088 42.1184 49.7136 42.3783 49.4016 42.7298L48.996 41.8891H47.2645V50.1431H49.7604V45.6798C49.7604 45.099 49.9008 44.6405 50.166 44.3195C50.4312 43.9985 50.79 43.8303 51.1956 43.8303C51.57 43.8303 51.8664 43.9526 52.0692 44.2125C52.2719 44.457 52.3811 44.8544 52.3811 45.3741V50.1431H54.8771V45.6798C54.8771 45.099 55.0175 44.6405 55.2827 44.3195C55.5479 43.9985 55.9067 43.8303 56.3122 43.8303C56.6866 43.8303 56.983 43.9526 57.1858 44.2125C57.3886 44.457 57.4978 44.8544 57.4978 45.3741V50.1431H59.9938V44.9309C59.9938 43.8915 59.7286 43.0661 59.1982 42.5005C58.6834 41.8891 57.9502 41.614 57.0298 41.614Z" fill="#2A3134"/>
<path d="M66.0951 46.8564C66.0951 47.2385 65.9547 47.5595 65.6583 47.7888C65.3619 48.0181 64.9407 48.1403 64.3792 48.1403C64.0204 48.1403 63.7552 48.0792 63.5836 47.9416C63.412 47.8041 63.334 47.6359 63.334 47.4219C63.334 46.9634 63.6772 46.7341 64.348 46.7341H66.1107V46.8564H66.0951ZM64.8783 41.6136C63.802 41.6136 62.9284 41.8734 62.2576 42.3778C61.5868 42.8975 61.1812 43.6007 61.0252 44.5178H63.5368C63.5836 44.2273 63.724 44.0134 63.958 43.8452C64.192 43.6771 64.4883 43.6007 64.8471 43.6007C65.2527 43.6007 65.5647 43.7076 65.7831 43.9216C66.0015 44.1356 66.1107 44.4413 66.1107 44.8387V45.175H64.0516C62.9908 45.175 62.1796 45.4043 61.618 45.8476C61.0564 46.2908 60.7756 46.9175 60.7756 47.7124C60.7756 48.4766 61.0408 49.0727 61.5712 49.516C62.1016 49.944 62.8504 50.1733 63.802 50.1733C64.9251 50.1733 65.8143 49.8064 66.5007 49.088L67.0155 50.1733H68.6223V45.0375C68.6223 43.9522 68.2947 43.1268 67.6551 42.546C66.9843 41.904 66.0639 41.6136 64.8783 41.6136Z" fill="#2A3134"/>
<path d="M73.2237 47.6212C73.0209 47.4225 72.9117 47.1168 72.9117 46.7041V43.9834H75.3921V41.8434H72.9117V39.8717H70.8681L70.4938 41.8434H68.809V43.9834H70.4158V46.7652C70.4158 48.9968 71.5389 50.1126 73.7853 50.1126H75.4232V47.9116H74.1909C73.7541 47.9116 73.4265 47.8199 73.2237 47.6212Z" fill="#2A3134"/>
<path d="M78.2433 44.9761C78.3837 44.5328 78.6177 44.1965 78.9609 43.952C79.3041 43.7074 79.6941 43.5851 80.1465 43.5851C81.1448 43.5851 81.7844 44.0437 82.0496 44.9761H78.2433ZM84.6236 45.7862C84.6236 45.0066 84.4364 44.2883 84.062 43.6463C83.6876 43.0043 83.1572 42.5152 82.4708 42.1483C81.7844 41.7815 81.0044 41.6134 80.1308 41.6134C79.2729 41.6134 78.4929 41.7968 77.8221 42.1636C77.1513 42.5305 76.6209 43.0349 76.2309 43.6921C75.8565 44.3341 75.6693 45.0678 75.6693 45.8779C75.6693 46.688 75.8565 47.4217 76.2309 48.0637C76.6053 48.7056 77.1357 49.21 77.8221 49.5769C78.5085 49.9437 79.2885 50.1271 80.162 50.1271C81.2228 50.1271 82.1276 49.8826 82.8764 49.3782C83.6252 48.8738 84.1556 48.2165 84.452 47.4064H81.878C81.5192 47.9108 80.9576 48.1554 80.1933 48.1554C79.6473 48.1554 79.1949 48.0178 78.8517 47.758C78.5085 47.4981 78.2745 47.116 78.1653 46.5963H84.5456C84.5924 46.3976 84.6236 46.1377 84.6236 45.7862Z" fill="#2A3134"/>
<path d="M112.097 8.93473C110.256 7.11581 107.682 6 104.858 6C102.035 6 99.461 7.13109 97.6202 8.93473C95.7639 10.7384 94.6251 13.2604 94.6251 16.027C94.6251 18.7936 95.7795 21.3156 97.6202 23.1193C99.461 24.9382 102.035 26.054 104.858 26.054C107.682 26.054 110.256 24.9229 112.097 23.1193C113.937 21.3156 115.092 18.7936 115.092 16.027C115.092 13.2604 113.953 10.7384 112.097 8.93473ZM108.368 19.4661C107.464 20.3527 106.247 20.8876 104.858 20.8876C103.486 20.8876 102.253 20.3527 101.349 19.4661C100.444 18.5796 99.8978 17.3874 99.8978 16.027C99.8978 14.6819 100.444 13.4744 101.349 12.5879C102.253 11.7013 103.47 11.1663 104.858 11.1663C106.231 11.1663 107.464 11.7013 108.368 12.5879C109.273 13.4744 109.819 14.6666 109.819 16.027C109.819 17.3721 109.273 18.5796 108.368 19.4661Z" fill="#1AE8B5"/>
<path d="M96.4956 50.1131V42.0273C96.4956 39.7651 97.4316 37.7322 98.9447 36.2342C100.458 34.7516 102.533 33.8345 104.857 33.8345C107.166 33.8345 109.241 34.7516 110.769 36.2342C112.282 37.7169 113.218 39.7498 113.218 42.0273V50.1131H118.491V42.0273C118.491 38.3436 116.962 34.9962 114.498 32.5811C112.033 30.1661 108.617 28.6682 104.857 28.6682C101.098 28.6682 97.6812 30.1661 95.2164 32.5811C92.7517 34.9962 91.2229 38.3436 91.2229 42.0273V50.1131H96.4956Z" fill="#FEE201"/>
</g>
<defs>
<clipPath id="clip0_8_6">
<rect width="119" height="44" fill="white" transform="translate(0 6)"/>
</clipPath>
</defs>
</svg>
