<svg width="18" height="18" viewBox="0 0 18 18" fill="none" xmlns="http://www.w3.org/2000/svg">
<circle cx="8.5542" cy="8.51807" r="8.51807" fill="black"/>
<path d="M11.8178 5.42374C11.7527 5.39009 11.6893 5.35321 11.6279 5.31324C11.4493 5.19519 11.2856 5.0561 11.1403 4.89896C10.7766 4.48288 10.6408 4.06077 10.5908 3.76523H10.5928C10.551 3.51992 10.5683 3.36121 10.5709 3.36121H8.91462V9.76578C8.91462 9.85177 8.91462 9.93675 8.91101 10.0207C8.91101 10.0312 8.91 10.0408 8.9094 10.0521C8.9094 10.0567 8.9094 10.0615 8.90839 10.0663C8.90839 10.0675 8.90839 10.0687 8.90839 10.07C8.89094 10.2997 8.81727 10.5217 8.69389 10.7164C8.5705 10.911 8.40117 11.0724 8.20079 11.1862C7.99196 11.305 7.75576 11.3673 7.51549 11.367C6.7438 11.367 6.11837 10.7378 6.11837 9.96066C6.11837 9.18354 6.7438 8.5543 7.51549 8.5543C7.66157 8.55416 7.80675 8.57715 7.94564 8.6224L7.94765 6.93598C7.52601 6.88151 7.09767 6.91502 6.68963 7.03439C6.2816 7.15376 5.90273 7.35639 5.57692 7.62951C5.29145 7.87756 5.05144 8.17351 4.86772 8.50407C4.7978 8.62462 4.53401 9.10901 4.50206 9.89516C4.48197 10.3414 4.61598 10.8037 4.67987 10.9947V10.9988C4.72005 11.1113 4.87575 11.4952 5.1295 11.8189C5.33411 12.0785 5.57586 12.3066 5.84695 12.4957V12.4917L5.85096 12.4957C6.65279 13.0406 7.54181 13.0048 7.54181 13.0048C7.69571 12.9986 8.21124 13.0048 8.79669 12.7274C9.44603 12.4198 9.8157 11.9615 9.8157 11.9615C10.0519 11.6877 10.2397 11.3756 10.371 11.0387C10.5209 10.6448 10.5709 10.1722 10.5709 9.98336V6.58559C10.591 6.59765 10.8586 6.77465 10.8586 6.77465C10.8586 6.77465 11.2442 7.02176 11.8457 7.18269C12.2772 7.29721 12.8587 7.32132 12.8587 7.32132V5.67708C12.6549 5.69918 12.2413 5.63489 11.8178 5.42374Z" fill="white"/>
</svg>
